{
  "accessors": [
    {
      "bufferView": 2,
      "componentType": 5126,
      "count": 652,
      "max": [
        -1.4971051216125488,
        0.23085713386535645,
        1.772158145904541
      ],
      "min": [
        -2.0473697185516357,
        -0.2348974496126175,
        -0.07220768183469772
      ],
      "type": "VEC3"
    },
    {
      "bufferView": 2,
      "byteOffset": 7824,
      "componentType": 5126,
      "count": 652,
      "max": [
        0.9981628656387329,
        0.9999540448188782,
        1.0
      ],
      "min": [
        -0.9993062615394592,
        -0.9999998211860657,
        -0.9999977946281433
      ],
      "type": "VEC3"
    },
    {
      "bufferView": 3,
      "componentType": 5126,
      "count": 652,
      "max": [
        0.6509804129600525,
        0.8470588326454163,
        0.03529411926865578,
        1.0
      ],
      "min": [
        0.6509804129600525,
        0.8470588326454163,
        0.03529411926865578,
        1.0
      ],
      "type": "VEC4"
    },
    {
      "bufferView": 1,
      "componentType": 5126,
      "count": 652,
      "max": [
        1.0,
        1.0
      ],
      "min": [
        0.0,
        0.0
      ],
      "type": "VEC2"
    },
    {
      "bufferView": 0,
      "componentType": 5125,
      "count": 2880,
      "type": "SCALAR"
    },
    {
      "bufferView": 2,
      "byteOffset": 15648,
      "componentType": 5126,
      "count": 663,
      "max": [
        -1.2690415382385254,
        0.5705892443656921,
        1.7503881454467773
      ],
      "min": [
        -1.99898099899292,
        -0.1227288618683815,
        -0.10799983143806458
      ],
      "type": "VEC3"
    },
    {
      "bufferView": 2,
      "byteOffset": 23604,
      "componentType": 5126,
      "count": 663,
      "max": [
        0.9221279621124268,
        0.8677060008049011,
        1.0
      ],
      "min": [
        -1.0,
        -0.9006537795066833,
        -1.0
      ],
      "type": "VEC3"
    },
    {
      "bufferView": 3,
      "byteOffset": 10432,
      "componentType": 5126,
      "count": 663,
      "max": [
        0.6509804129600525,
        0.8470588326454163,
        0.03529411926865578,
        1.0
      ],
      "min": [
        0.6509804129600525,
        0.8470588326454163,
        0.03529411926865578,
        1.0
      ],
      "type": "VEC4"
    },
    {
      "bufferView": 1,
      "byteOffset": 5216,
      "componentType": 5126,
      "count": 663,
      "max": [
        1.0,
        1.0
      ],
      "min": [
        0.0,
        0.0
      ],
      "type": "VEC2"
    },
    {
      "bufferView": 0,
      "byteOffset": 11520,
      "componentType": 5125,
      "count": 2868,
      "type": "SCALAR"
    },
    {
      "bufferView": 2,
      "byteOffset": 31560,
      "componentType": 5126,
      "count": 5271,
      "max": [
        1.416452169418335,
        0.5889781713485718,
        3.4035887718200684
      ],
      "min": [
        -1.4164543151855469,
        -0.018232880160212517,
        1.9061399698257446
      ],
      "type": "VEC3"
    },
    {
      "bufferView": 2,
      "byteOffset": 94812,
      "componentType": 5126,
      "count": 5271,
      "max": [
        0.9998900294303894,
        0.9994931221008301,
        0.9955111742019653
      ],
      "min": [
        -0.9999310374259949,
        -0.999878466129303,
        -0.999640703201294
      ],
      "type": "VEC3"
    },
    {
      "bufferView": 3,
      "byteOffset": 21040,
      "componentType": 5126,
      "count": 5271,
      "max": [
        0.9960784316062927,
        0.9960784316062927,
        0.9960784316062927,
        1.0
      ],
      "min": [
        0.9803921580314636,
        0.7137255072593689,
        0.37254902720451355,
        1.0
      ],
      "type": "VEC4"
    },
    {
      "bufferView": 0,
      "byteOffset": 22992,
      "componentType": 5125,
      "count": 31566,
      "type": "SCALAR"
    },
    {
      "bufferView": 2,
      "byteOffset": 158064,
      "componentType": 5126,
      "count": 3306,
      "max": [
        1.1289494037628174,
        -0.5347440838813782,
        2.0279855728149414
      ],
      "min": [
        -1.128949522972107,
        -1.2765507698059082,
        1.5754789113998413
      ],
      "type": "VEC3"
    },
    {
      "bufferView": 2,
      "byteOffset": 197736,
      "componentType": 5126,
      "count": 3306,
      "max": [
        0.9990977644920349,
        0.9959037899971008,
        0.9983192086219788
      ],
      "min": [
        -0.9965235590934753,
        -0.9694187045097351,
        -0.9994800090789795
      ],
      "type": "VEC3"
    },
    {
      "bufferView": 3,
      "byteOffset": 105376,
      "componentType": 5126,
      "count": 3306,
      "max": [
        0.0235294122248888,
        0.0235294122248888,
        0.0235294122248888,
        1.0
      ],
      "min": [
        0.0235294122248888,
        0.0235294122248888,
        0.0235294122248888,
        1.0
      ],
      "type": "VEC4"
    },
    {
      "bufferView": 0,
      "byteOffset": 149256,
      "componentType": 5125,
      "count": 15888,
      "type": "SCALAR"
    },
    {
      "bufferView": 2,
      "byteOffset": 237408,
      "componentType": 5126,
      "count": 65532,
      "max": [
        1.2476682662963867,
        1.3448963165283203,
        3.1860945224761963
      ],
      "min": [
        -1.2570078372955322,
        -1.344895839691162,
        0.8172605633735657
      ],
      "type": "VEC3"
    },
    {
      "bufferView": 2,
      "byteOffset": 1023792,
      "componentType": 5126,
      "count": 65532,
      "max": [
        0.9933227300643921,
        0.9999783039093018,
        0.9999504685401917
      ],
      "min": [
        -0.9999454617500305,
        -0.9999781250953674,
        -0.9999966025352478
      ],
      "type": "VEC3"
    },
    {
      "bufferView": 3,
      "byteOffset": 158272,
      "componentType": 5126,
      "count": 65532,
      "max": [
        0.9960784316062927,
        0.9960784316062927,
        0.9960784316062927,
        1.0
      ],
      "min": [
        0.0235294122248888,
        0.0235294122248888,
        0.0235294122248888,
        1.0
      ],
      "type": "VEC4"
    },
    {
      "bufferView": 0,
      "byteOffset": 212808,
      "componentType": 5125,
      "count": 361869,
      "type": "SCALAR"
    },
    {
      "bufferView": 2,
      "byteOffset": 1810176,
      "componentType": 5126,
      "count": 20452,
      "max": [
        1.2570080757141113,
        1.0021337270736694,
        3.1737327575683594
      ],
      "min": [
        -1.2510690689086914,
        -1.344203233718872,
        0.8274278044700623
      ],
      "type": "VEC3"
    },
    {
      "bufferView": 2,
      "byteOffset": 2055600,
      "componentType": 5126,
      "count": 20452,
      "max": [
        0.9999356865882874,
        0.7641903162002563,
        0.9907679557800293
      ],
      "min": [
        -0.996284008026123,
        -0.9997237324714661,
        -0.9961203932762146
      ],
      "type": "VEC3"
    },
    {
      "bufferView": 3,
      "byteOffset": 1206784,
      "componentType": 5126,
      "count": 20452,
      "max": [
        0.9960784316062927,
        0.9960784316062927,
        0.9960784316062927,
        1.0
      ],
      "min": [
        0.0235294122248888,
        0.0235294122248888,
        0.0235294122248888,
        1.0
      ],
      "type": "VEC4"
    },
    {
      "bufferView": 0,
      "byteOffset": 1660284,
      "componentType": 5125,
      "count": 74517,
      "type": "SCALAR"
    },
    {
      "bufferView": 2,
      "byteOffset": 2301024,
      "componentType": 5126,
      "count": 1538,
      "max": [
        1.1820906400680542,
        0.7203469276428223,
        0.9934690594673157
      ],
      "min": [
        0.32785484194755554,
        0.3174498975276947,
        0.03798326104879379
      ],
      "type": "VEC3"
    },
    {
      "bufferView": 2,
      "byteOffset": 2319480,
      "componentType": 5126,
      "count": 1538,
      "max": [
        0.9979049563407898,
        0.9984130859375,
        0.9949267506599426
      ],
      "min": [
        -0.9957007169723511,
        -0.999864399433136,
        -0.9943497180938721
      ],
      "type": "VEC3"
    },
    {
      "bufferView": 3,
      "byteOffset": 1534016,
      "componentType": 5126,
      "count": 1538,
      "max": [
        0.9960784316062927,
        0.9960784316062927,
        0.9960784316062927,
        1.0
      ],
      "min": [
        0.9803921580314636,
        0.7137255072593689,
        0.37254902720451355,
        1.0
      ],
      "type": "VEC4"
    },
    {
      "bufferView": 0,
      "byteOffset": 1958352,
      "componentType": 5125,
      "count": 9216,
      "type": "SCALAR"
    },
    {
      "bufferView": 2,
      "byteOffset": 2337936,
      "componentType": 5126,
      "count": 3076,
      "max": [
        0.3862415850162506,
        -0.44281676411628723,
        0.38792377710342407
      ],
      "min": [
        -0.3862415850162506,
        -0.7868348360061646,
        -0.06098572164773941
      ],
      "type": "VEC3"
    },
    {
      "bufferView": 2,
      "byteOffset": 2374848,
      "componentType": 5126,
      "count": 3076,
      "max": [
        0.9996597170829773,
        0.9994602799415588,
        0.9980876445770264
      ],
      "min": [
        -0.9996597170829773,
        -0.998278796672821,
        -0.999206006526947
      ],
      "type": "VEC3"
    },
    {
      "bufferView": 3,
      "byteOffset": 1558624,
      "componentType": 5126,
      "count": 3076,
      "max": [
        1.0,
        1.0,
        1.0,
        1.0
      ],
      "min": [
        1.0,
        1.0,
        1.0,
        1.0
      ],
      "type": "VEC4"
    },
    {
      "bufferView": 0,
      "byteOffset": 1995216,
      "componentType": 5125,
      "count": 18432,
      "type": "SCALAR"
    },
    {
      "bufferView": 2,
      "byteOffset": 2411760,
      "componentType": 5126,
      "count": 10984,
      "max": [
        0.7941306233406067,
        0.7420218586921692,
        1.2389488220214844
      ],
      "min": [
        -0.7485920786857605,
        -0.5805994868278503,
        -0.05118297040462494
      ],
      "type": "VEC3"
    },
    {
      "bufferView": 2,
      "byteOffset": 2543568,
      "componentType": 5126,
      "count": 10984,
      "max": [
        0.9997810125350952,
        0.9999098777770996,
        0.9997468590736389
      ],
      "min": [
        -0.9998409748077393,
        -0.9997636079788208,
        -0.9998233914375305
      ],
      "type": "VEC3"
    },
    {
      "bufferView": 3,
      "byteOffset": 1607840,
      "componentType": 5126,
      "count": 10984,
      "max": [
        0.9960784316062927,
        0.9960784316062927,
        0.9921568632125854,
        1.0
      ],
      "min": [
        0.9803921580314636,
        0.7137255072593689,
        0.37254902720451355,
        1.0
      ],
      "type": "VEC4"
    },
    {
      "bufferView": 0,
      "byteOffset": 2068944,
      "componentType": 5125,
      "count": 65892,
      "type": "SCALAR"
    }
  ],
  "asset": {
    "extras": {
      "author": "Fayme Wong (https://sketchfab.com/FaymeWong)",
      "license": "CC-BY-4.0 (http://creativecommons.org/licenses/by/4.0/)",
      "source": "https://sketchfab.com/3d-models/cute-cat-d06965e6712646328129388b32c47b96",
      "title": "Cute Cat"
    },
    "generator": "Sketchfab-12.66.0",
    "version": "2.0"
  },
  "bufferViews": [
    {
      "buffer": 0,
      "byteLength": 2332512,
      "name": "floatBufferViews",
      "target": 34963
    },
    {
      "buffer": 0,
      "byteLength": 10520,
      "byteOffset": 2332512,
      "byteStride": 8,
      "name": "floatBufferViews",
      "target": 34962
    },
    {
      "buffer": 0,
      "byteLength": 2675376,
      "byteOffset": 2343032,
      "byteStride": 12,
      "name": "floatBufferViews",
      "target": 34962
    },
    {
      "buffer": 0,
      "byteLength": 1783584,
      "byteOffset": 5018408,
      "byteStride": 16,
      "name": "floatBufferViews",
      "target": 34962
    }
  ],
  "buffers": [
    {
      "byteLength": 6801992,
      "uri": "scene.bin"
    }
  ],
  "materials": [
    {
      "doubleSided": true,
      "name": "material_0",
      "pbrMetallicRoughness": {
        "metallicFactor": 0.0,
        "roughnessFactor": 0.6
      }
    },
    {
      "doubleSided": true,
      "name": "material_1",
      "pbrMetallicRoughness": {
        "metallicFactor": 0.0,
        "roughnessFactor": 0.6
      }
    },
    {
      "doubleSided": true,
      "name": "material_2",
      "pbrMetallicRoughness": {
        "metallicFactor": 0.0,
        "roughnessFactor": 0.6
      }
    },
    {
      "doubleSided": true,
      "name": "material_3",
      "pbrMetallicRoughness": {
        "metallicFactor": 0.0,
        "roughnessFactor": 0.6
      }
    },
    {
      "doubleSided": true,
      "name": "material_4",
      "pbrMetallicRoughness": {
        "metallicFactor": 0.0,
        "roughnessFactor": 0.6
      }
    },
    {
      "doubleSided": true,
      "name": "material_5",
      "pbrMetallicRoughness": {
        "metallicFactor": 0.0,
        "roughnessFactor": 0.6
      }
    },
    {
      "doubleSided": true,
      "name": "defaultMat",
      "pbrMetallicRoughness": {
        "baseColorFactor": [
          0.8,
          0.8,
          0.8,
          1.0
        ],
        "metallicFactor": 0.0
      }
    },
    {
      "doubleSided": true,
      "name": "defaultMat_0",
      "pbrMetallicRoughness": {
        "baseColorFactor": [
          0.8,
          0.8,
          0.8,
          1.0
        ],
        "metallicFactor": 0.0
      }
    }
  ],
  "meshes": [
    {
      "name": "Object_0",
      "primitives": [
        {
          "attributes": {
            "COLOR_0": 2,
            "NORMAL": 1,
            "POSITION": 0,
            "TEXCOORD_0": 3
          },
          "indices": 4,
          "material": 7,
          "mode": 4
        }
      ]
    },
    {
      "name": "Object_1",
      "primitives": [
        {
          "attributes": {
            "COLOR_0": 7,
            "NORMAL": 6,
            "POSITION": 5,
            "TEXCOORD_0": 8
          },
          "indices": 9,
          "material": 6,
          "mode": 4
        }
      ]
    },
    {
      "name": "Object_2",
      "primitives": [
        {
          "attributes": {
            "COLOR_0": 12,
            "NORMAL": 11,
            "POSITION": 10
          },
          "indices": 13,
          "material": 5,
          "mode": 4
        }
      ]
    },
    {
      "name": "Object_3",
      "primitives": [
        {
          "attributes": {
            "COLOR_0": 16,
            "NORMAL": 15,
            "POSITION": 14
          },
          "indices": 17,
          "material": 4,
          "mode": 4
        }
      ]
    },
    {
      "name": "Object_4",
      "primitives": [
        {
          "attributes": {
            "COLOR_0": 20,
            "NORMAL": 19,
            "POSITION": 18
          },
          "indices": 21,
          "material": 3,
          "mode": 4
        }
      ]
    },
    {
      "name": "Object_5",
      "primitives": [
        {
          "attributes": {
            "COLOR_0": 24,
            "NORMAL": 23,
            "POSITION": 22
          },
          "indices": 25,
          "material": 3,
          "mode": 4
        }
      ]
    },
    {
      "name": "Object_6",
      "primitives": [
        {
          "attributes": {
            "COLOR_0": 28,
            "NORMAL": 27,
            "POSITION": 26
          },
          "indices": 29,
          "material": 2,
          "mode": 4
        }
      ]
    },
    {
      "name": "Object_7",
      "primitives": [
        {
          "attributes": {
            "COLOR_0": 32,
            "NORMAL": 31,
            "POSITION": 30
          },
          "indices": 33,
          "material": 1,
          "mode": 4
        }
      ]
    },
    {
      "name": "Object_8",
      "primitives": [
        {
          "attributes": {
            "COLOR_0": 36,
            "NORMAL": 35,
            "POSITION": 34
          },
          "indices": 37,
          "material": 0,
          "mode": 4
        }
      ]
    }
  ],
  "nodes": [
    {
      "children": [
        1
      ],
      "matrix": [
        1.0,
        0.0,
        0.0,
        0.0,
        0.0,
        2.220446049250313e-16,
        -1.0,
        0.0,
        0.0,
        1.0,
        2.220446049250313e-16,
        0.0,
        0.0,
        0.0,
        0.0,
        1.0
      ],
      "name": "Sketchfab_model"
    },
    {
      "children": [
        2,
        4,
        6,
        8,
        10,
        13,
        15,
        17
      ],
      "name": "zbrush_concat.osgb.cleaner.materialmerger.gles"
    },
    {
      "children": [
        3
      ],
      "name": "/sketchfab-data/processing/models/b67bcee38e704ed0b809ea92994d862b/d06965e6712646328129388b32c47b96/4e460afa5f3946c98aafbc84ed0c1fc2/preprocess/SubTool-7-12618708.OBJ"
    },
    {
      "mesh": 0,
      "name": "Object_3"
    },
    {
      "children": [
        5
      ],
      "name": "/sketchfab-data/processing/models/b67bcee38e704ed0b809ea92994d862b/d06965e6712646328129388b32c47b96/4e460afa5f3946c98aafbc84ed0c1fc2/preprocess/SubTool-6-12618708.OBJ"
    },
    {
      "mesh": 1,
      "name": "Object_5"
    },
    {
      "children": [
        7
      ],
      "name": "/sketchfab-data/processing/models/b67bcee38e704ed0b809ea92994d862b/d06965e6712646328129388b32c47b96/4e460afa5f3946c98aafbc84ed0c1fc2/preprocess/SubTool-5-10389817.OBJ"
    },
    {
      "mesh": 2,
      "name": "Object_7"
    },
    {
      "children": [
        9
      ],
      "name": "/sketchfab-data/processing/models/b67bcee38e704ed0b809ea92994d862b/d06965e6712646328129388b32c47b96/4e460afa5f3946c98aafbc84ed0c1fc2/preprocess/SubTool-4-2212349.OBJ"
    },
    {
      "mesh": 3,
      "name": "Object_9"
    },
    {
      "children": [
        11,
        12
      ],
      "name": "/sketchfab-data/processing/models/b67bcee38e704ed0b809ea92994d862b/d06965e6712646328129388b32c47b96/4e460afa5f3946c98aafbc84ed0c1fc2/preprocess/SubTool-3-10389817.OBJ"
    },
    {
      "mesh": 4,
      "name": "Object_11"
    },
    {
      "mesh": 5,
      "name": "Object_12"
    },
    {
      "children": [
        14
      ],
      "name": "/sketchfab-data/processing/models/b67bcee38e704ed0b809ea92994d862b/d06965e6712646328129388b32c47b96/4e460afa5f3946c98aafbc84ed0c1fc2/preprocess/SubTool-2-10233600.OBJ"
    },
    {
      "mesh": 6,
      "name": "Object_14"
    },
    {
      "children": [
        16
      ],
      "name": "/sketchfab-data/processing/models/b67bcee38e704ed0b809ea92994d862b/d06965e6712646328129388b32c47b96/4e460afa5f3946c98aafbc84ed0c1fc2/preprocess/SubTool-1-10233600.OBJ"
    },
    {
      "mesh": 7,
      "name": "Object_16"
    },
    {
      "children": [
        18
      ],
      "name": "/sketchfab-data/processing/models/b67bcee38e704ed0b809ea92994d862b/d06965e6712646328129388b32c47b96/4e460afa5f3946c98aafbc84ed0c1fc2/preprocess/SubTool-0-10233600.OBJ"
    },
    {
      "mesh": 8,
      "name": "Object_18"
    }
  ],
  "scene": 0,
  "scenes": [
    {
      "name": "Sketchfab_Scene",
      "nodes": [
        0
      ]
    }
  ]
}
